# xmcd
#
# Track frame offsets:
#	150
#	11592
#	24760
#	35635
#	47617
#	58117
#	69080
#	78962
#	88755
#	98740
#	111027
#	120835
#
# Disc length: 1735 seconds
#
# Revision: 0
# Processed by: cddbd v1.4PL0 Copyright (c) Steve Scherf et al.
# Submitted via: audiograbber 1.80
#
DISCID=8306c50c
DTITLE=Willie Nelson - Country Willie His Own Songs
DYEAR=1900
DGENRE=
TTITLE0=One Day At A Time
TTITLE1=My Own Peculiar Way
TTITLE2=Night Life
TTITLE3=Funny How Time Slips Away
TTITLE4=Healing Hands Of Time
TTITLE5=Darkness On The Face Of The Earth
TTITLE6=Hello Walls
TTITLE7=Are You Sure
TTITLE8=Mr. Record Man
TTITLE9=It Should Be Easier Now
TTITLE10=So Much To Do
TTITLE11=Within Your Crowd
EXTD=
EXTT0=
EXTT1=
EXTT2=
EXTT3=
EXTT4=
EXTT5=
EXTT6=
EXTT7=
EXTT8=
EXTT9=
EXTT10=
EXTT11=
PLAYORDER=
